<?xml version="1.0" encoding="UTF-8"?>
<!DOCTYPE svg PUBLIC "-//W3C//DTD SVG 1.1//EN" "http://www.w3.org/Graphics/SVG/1.1/DTD/svg11.dtd">
<!-- Creator: CorelDRAW 2019 -->
<svg xmlns="http://www.w3.org/2000/svg" xml:space="preserve" width="91.4401mm" height="162.56mm" version="1.1" style="shape-rendering:geometricPrecision; text-rendering:geometricPrecision; image-rendering:optimizeQuality; fill-rule:evenodd; clip-rule:evenodd"
viewBox="0 0 9144.02 16256.03"
 xmlns:xlink="http://www.w3.org/1999/xlink">
 <defs>
  <style type="text/css">
   <![CDATA[
    .fil0 {fill:none}
    .fil6 {fill:#FEFEFE}
    .fil4 {fill:#363564}
    .fil7 {fill:#9D325E}
    .fil2 {fill:#EC268F}
    .fil10 {fill:#373435;fill-rule:nonzero}
    .fil5 {fill:#606062;fill-opacity:0.349020}
    .fil3 {fill:url(#id0)}
    .fil1 {fill:url(#id1)}
    .fil9 {fill:url(#id2)}
    .fil8 {fill:url(#id3)}
   ]]>
  </style>
  <linearGradient id="id0" gradientUnits="userSpaceOnUse" x1="8564.66" y1="14769.31" x2="8797.56" y2="3002.09">
   <stop offset="0" style="stop-opacity:1; stop-color:#363564"/>
   <stop offset="1" style="stop-opacity:1; stop-color:#EC268F"/>
  </linearGradient>
  <linearGradient id="id1" gradientUnits="userSpaceOnUse" xlink:href="#id0" x1="505.98" y1="14770.34" x2="631.86" y2="3001.06">
  </linearGradient>
  <radialGradient id="id2" gradientUnits="userSpaceOnUse" gradientTransform="matrix(1.57545 -0.818673 0.471276 1.33459 -5605 1985)" cx="4860.31" cy="5958.42" r="1085.78" fx="4860.31" fy="5958.42">
   <stop offset="0" style="stop-opacity:1; stop-color:#EC268F"/>
   <stop offset="0.870588" style="stop-opacity:1; stop-color:#C42C76"/>
   <stop offset="1" style="stop-opacity:1; stop-color:#9C325E"/>
  </radialGradient>
  <radialGradient id="id3" gradientUnits="userSpaceOnUse" gradientTransform="matrix(-1.56865 0.35768 0.0564566 -1.45184 9537 14249)" cx="3853.04" cy="6373.45" r="780.19" fx="3853.04" fy="6373.45">
   <stop offset="0" style="stop-opacity:1; stop-color:#3E4095"/>
   <stop offset="0.878431" style="stop-opacity:1; stop-color:#3A3A7C"/>
   <stop offset="1" style="stop-opacity:1; stop-color:#363564"/>
  </radialGradient>
 </defs>
 <g id="Capa_x0020_1">
  <metadata id="CorelCorpID_0Corel-Layer"/>
  <rect class="fil0" x="-0.01" y="-0.01" width="9144.02" height="16256.03"/>
  <path class="fil1" d="M359.06 14770.3c0,-597.99 0,-1195.97 0,-1793.96 0,-399.82 0,-799.63 0,-1199.45 0,-482.13 0,-964.26 0,-1446.39 0,-388.05 0,-776.11 0,-1164.16 0,-540.93 0,-1081.85 0,-1622.78 0,-352.78 0,-705.55 0,-1058.33 0,-470.37 0,-940.75 0,-1411.12 0,-446.85 0,-893.7 0,-1340.55 0,-435.09 0,-870.19 0,-1305.28 0,-308.94 0,-617.89 0,-926.83 95.44,0 190.87,0 286.31,0 0,344.22 0,688.44 0,1032.66 0,529.17 0,1058.33 0,1587.5 0,529.17 0,1058.33 0,1587.5 0,729.08 0,1458.15 0,2187.23 0,799.63 0,1599.26 0,2398.89 0,682.04 0,1364.07 0,2046.11 0,576.2 0,1152.41 0,1728.61 0,233.45 0,466.9 0,700.35 -95.44,0 -190.87,0 -286.31,0z"/>
  <path class="fil2" d="M7758.86 15853.68c-261.81,0 -523.62,0 -785.43,0 -482.13,0 -964.26,0 -1446.39,0 -435.09,0 -870.19,0 -1305.28,0 -635,0 -1270,0 -1905,0 -319.66,0 -639.33,0 -958.99,0 0,-95.44 0,-190.88 0,-286.32 178.55,0 357.11,0 535.66,0 517.41,0 1034.81,0 1552.22,0 482.13,0 964.26,0 1446.39,0 482.13,0 964.26,0 1446.39,0 473.48,0 946.95,0 1420.43,0 0,95.44 0,190.88 0,286.32z"/>
  <path class="fil3" d="M8757.57 1501.43c0,567.65 0,1135.29 0,1702.94 0,564.45 0,1128.89 0,1693.34 0,587.96 0,1175.92 0,1763.88 0,787.87 0,1575.75 0,2363.62 0,870.18 0,1740.37 0,2610.55 0,1044.84 0,2089.68 0,3134.52 -95.44,0 -190.88,0 -286.32,0 0,-680.3 0,-1360.61 0,-2040.91 0,-846.67 0,-1693.33 0,-2540 0,-740.83 0,-1481.67 0,-2222.5 0,-635 0,-1270 0,-1905 0,-705.56 0,-1411.11 0,-2116.67 0,-587.96 0,-1175.92 0,-1763.88 0,-226.63 0,-453.26 0,-679.89 95.44,0 190.88,0 286.32,0z"/>
  <path class="fil4" d="M1357.75 502.73c249.11,0 498.22,0 747.33,0 505.65,0 1011.3,0 1516.95,0 540.93,0 1081.85,0 1622.78,0 482.13,0 964.26,0 1446.39,0 355.88,0 711.77,0 1067.65,0 0,95.44 0,190.88 0,286.32 -250.05,0 -500.1,0 -750.15,0 -482.13,0 -964.26,0 -1446.39,0 -435.09,0 -870.19,0 -1305.28,0 -587.96,0 -1175.93,0 -1763.89,0 -235.19,0 -470.37,0 -705.56,0 -143.28,0 -286.55,0 -429.83,0 0,-95.44 0,-190.88 0,-286.32z"/>
  <polygon class="fil4" points="931.68,502.73 1217.99,502.73 1217.99,789.05 931.68,789.05 "/>
  <polygon class="fil2" points="359.06,1075.36 645.37,1075.36 645.37,1361.67 359.06,1361.67 "/>
  <polygon class="fil4" points="931.68,1075.36 645.37,1075.36 645.37,789.05 931.68,789.05 "/>
  <polygon class="fil4" points="359.06,502.73 645.37,502.73 645.37,789.05 359.06,789.05 "/>
  <polygon class="fil4" points="8184.93,502.73 7898.62,502.73 7898.62,789.05 8184.93,789.05 "/>
  <polygon class="fil2" points="8757.56,1075.36 8471.24,1075.36 8471.24,1361.67 8757.56,1361.67 "/>
  <polygon class="fil4" points="8184.93,1075.36 8471.24,1075.36 8471.24,789.05 8184.93,789.05 "/>
  <polygon class="fil4" points="8757.56,502.73 8471.24,502.73 8471.24,789.05 8757.56,789.05 "/>
  <polygon class="fil2" points="931.68,15853.67 1217.99,15853.67 1217.99,15567.35 931.68,15567.35 "/>
  <polygon class="fil4" points="359.06,15281.04 645.37,15281.04 645.37,14994.73 359.06,14994.73 "/>
  <polygon class="fil2" points="931.68,15281.04 645.37,15281.04 645.37,15567.35 931.68,15567.35 "/>
  <polygon class="fil2" points="359.06,15853.67 645.37,15853.67 645.37,15567.35 359.06,15567.35 "/>
  <polygon class="fil2" points="8184.93,15853.67 7898.62,15853.67 7898.62,15567.35 8184.93,15567.35 "/>
  <polygon class="fil4" points="8757.56,15281.04 8471.24,15281.04 8471.24,14994.73 8757.56,14994.73 "/>
  <polygon class="fil2" points="8184.93,15281.04 8471.24,15281.04 8471.24,15567.35 8184.93,15567.35 "/>
  <polygon class="fil2" points="8757.56,15853.67 8471.24,15853.67 8471.24,15567.35 8757.56,15567.35 "/>
  <path class="fil5" d="M3872.53 4861.57c1311.8,-638.72 2683,-524.49 3062.59,255.15 379.61,779.62 -376.13,1929.42 -1687.96,2568.14 -1311.8,638.73 -2682.98,524.52 -3062.58,-255.12 -379.6,-779.64 376.11,-1929.45 1687.95,-2568.17l0 0z"/>
  <path class="fil6" d="M3668.1 4730.15c1311.8,-638.72 2682.99,-524.49 3062.59,255.15 379.61,779.62 -376.13,1929.42 -1687.96,2568.14 -1311.8,638.73 -2682.98,524.52 -3062.58,-255.12 -379.61,-779.64 376.11,-1929.45 1687.95,-2568.17z"/>
  <path class="fil4" d="M3668.1 4730.15c1311.8,-638.72 2682.99,-524.49 3062.59,255.15 379.61,779.62 -376.13,1929.42 -1687.96,2568.14 -1311.8,638.73 -2682.98,524.52 -3062.58,-255.12 -379.61,-779.64 376.11,-1929.45 1687.95,-2568.17l0 0z"/>
  <path class="fil7" d="M5239.45 4318.28c698.3,-21.21 1267.32,207.09 1491.25,667.01 357.04,733.28 -290.35,1793.96 -1460.07,2448.93l22.86 -12.9c309.77,-202.95 481.97,-396.88 568.49,-555.96 205.22,-377.34 121.94,-937.8 -391.16,-1087.31 -243.03,-70.79 -556.22,-136.97 -808.49,-198.13 -164.79,-39.92 -733.78,-162.48 -756.19,-365.25 -36.27,-327.96 408.44,-486.64 777.12,-482.79 135.16,1.42 266.21,88 291.36,280.85 166.84,85.99 348.4,66.01 497.13,-14.16 148.73,-80.16 214.16,-169 276.5,-269.71 85.91,-174.7 -135.6,-396.27 -419.53,-408.57 -26.18,-1.14 -56.17,-1.85 -89.27,-2.01z"/>
  <path class="fil8" d="M2865.14 5235.85c-68.34,125.68 -113.12,263.29 -125.67,413.01 -24.45,235.53 59.72,417.2 196.6,551.32 -323.68,247.87 -572.82,572.37 -607.07,981.22 -28.67,276.33 75.09,486.97 240.47,639.89 -267.98,-111.6 -474.27,-286.66 -589.32,-522.97 -293.13,-602.03 90.84,-1424.74 884.99,-2062.47z"/>
  <path class="fil9" d="M6002.36 6914.94c96.98,-228.75 107.22,-462.92 38.71,-683.81 -54.38,-175.53 -164.41,-320.4 -316.94,-430.8 314.14,-313.26 404.73,-669.45 304.29,-993.42 -65.04,-209.81 -220.6,-372.14 -437.67,-477.15 534.39,53.75 954.95,275.59 1139.95,655.54 273.15,560.99 -41.58,1313.64 -728.34,1929.64z"/>
  <path class="fil6" d="M3906.12 5214.69c22.42,202.76 591.42,325.32 756.2,365.25 252.26,61.15 565.47,127.33 808.49,198.12 513.1,149.51 596.38,709.97 391.17,1087.32 -86.53,159.08 -258.73,353 -568.5,555.96 -81.11,46.05 -164.7,90.21 -250.75,132.1 -675.49,328.9 -1366.69,458.13 -1930.18,399.69l-47.79 -7.34c-252.82,-31.36 -445.6,-161.84 -452.92,-284.9 -19.11,-320.63 372.55,-644.6 744.99,-679.15 44.47,313.42 628.86,554.29 956.82,506.1 454.72,-66.8 824.46,-524.93 351.09,-785.74 -450.17,-248.02 -1095.58,-132.39 -1633.75,-505.96 -256.58,-178.06 -328.67,-516.61 -195.78,-811.02 51.49,-114.09 136.58,-215.17 236.9,-304.63 182.17,-127.85 381.59,-245.95 595.99,-350.34l0 0c537.84,-261.88 1085.6,-397.09 1570.97,-411.86 33.25,0.16 63.36,0.87 89.65,2.01 283.92,12.3 505.43,233.87 419.52,408.57 -62.34,100.71 -127.76,189.54 -276.5,269.71 -148.74,80.18 -330.29,100.15 -497.13,14.15 -25.15,-192.84 -156.2,-279.42 -291.36,-280.84 -368.68,-3.85 -813.39,154.83 -777.13,482.8z"/>
  <path class="fil10" d="M1664.11 10498.69l77.39 0 0 511.08 -77.39 0 0 -511.08zm162.08 0l85.43 0 98.56 343.15 0 -343.15 75.93 0 0 511.08 -81.77 0 -102.22 -327.1 0 327.1 -75.93 0 0 -511.08zm344.62 0l121.19 0c37,0 66.44,11.07 88.35,33.21 21.9,22.16 32.85,51.73 32.85,88.71l0 267.23c0,36.99 -10.95,66.56 -32.85,88.71 -21.91,22.14 -51.35,33.22 -88.35,33.22l-121.19 0 0 -511.08zm117.54 438.06c15.1,0 26.78,-4.13 35.05,-12.41 8.28,-8.27 12.41,-19.95 12.41,-35.04l0 -270.15c0,-15.09 -4.13,-26.76 -12.41,-35.04 -8.27,-8.27 -19.95,-12.41 -35.05,-12.41l-40.15 0 0 365.05 40.15 0zm319.79 80.32c-35.53,0 -64.49,-11.07 -86.88,-33.22 -22.39,-22.15 -33.59,-50.99 -33.59,-86.52l0 -398.64 77.4 0 0 398.64c0,14.6 4.01,26.04 12.05,34.32 8.02,8.27 18.37,12.41 31.02,12.41 12.66,0 23,-4.14 31.03,-12.41 8.04,-8.28 12.05,-19.72 12.05,-34.32l0 -398.64 75.93 0 0 398.64c0,35.53 -10.95,64.37 -32.85,86.52 -21.9,22.15 -50.62,33.22 -86.16,33.22zm308.11 0c-24.33,0 -45.99,-5.35 -64.98,-16.06 -18.98,-10.71 -33.7,-25.56 -44.17,-44.54 -10.47,-18.98 -15.69,-40.65 -15.69,-64.98l0 -18.26 74.47 -8.02 0 18.98c0,18.49 4.38,33.1 13.14,43.8 8.76,10.71 20.93,16.07 36.5,16.07 15.09,0 27.14,-4.38 36.14,-13.15 9.01,-8.76 13.51,-20.68 13.51,-35.77 0,-16.55 -4.75,-32.37 -14.24,-47.46 -9.49,-15.09 -28.35,-36.02 -56.58,-62.78 -37.97,-36.02 -63.89,-65.96 -77.76,-89.81 -13.87,-23.85 -20.8,-49.89 -20.8,-78.13 0,-38.45 10.46,-68.99 31.39,-91.63 20.92,-22.62 49.65,-33.95 86.15,-33.95 36.5,0 65.23,11.45 86.16,34.32 20.93,22.88 31.39,53.55 31.39,92l0 13.14 -74.47 8.03 0 -14.6c0,-19.47 -3.65,-34.32 -10.96,-44.54 -7.29,-10.22 -17.76,-15.33 -31.39,-15.33 -13.63,0 -24.09,4.14 -31.39,12.41 -7.31,8.27 -10.95,20.44 -10.95,36.51 0,16.05 4.86,31.52 14.59,46.36 9.74,14.85 28.48,36.14 56.23,63.89 37.96,37.96 63.88,68.5 77.76,91.62 13.86,23.12 20.8,48.56 20.8,76.3 0,24.33 -5.23,46 -15.7,64.98 -10.46,18.98 -25.19,33.83 -44.17,44.54 -18.98,10.71 -40.64,16.06 -64.98,16.06zm163.55 -518.38l246.77 0 0 73.01 -84.69 0 0 438.07 -77.39 0 0 -438.07 -84.69 0 0 -73.01zm480.4 511.08l-56.21 -211.01 -40.16 0 0 211.01 -77.39 0 0 -511.08 121.2 0c36.99,0 66.44,11.07 88.34,33.21 21.91,22.16 32.86,51.73 32.86,88.71l0 56.23c0,23.36 -4.63,44.04 -13.88,62.06 -9.24,18 -22.38,32.12 -39.42,42.34l64.98 228.53 -80.32 0zm-96.37 -284.01l40.16 0c15.09,0 26.77,-4.14 35.04,-12.42 8.28,-8.27 12.41,-19.96 12.41,-35.05l0 -59.14c0,-15.09 -4.13,-26.76 -12.41,-35.04 -8.27,-8.27 -19.95,-12.41 -35.04,-12.41l-40.16 0 0 154.06zm240.21 -227.07l77.39 0 0 511.08 -77.39 0 0 -511.08zm314.68 397.91l-83.24 0 -16.79 113.17 -77.39 0 84.69 -511.08 103.68 0 84.69 511.08 -78.85 0 -16.79 -113.17zm-10.22 -74.47l-31.4 -213.93 -31.4 213.93 62.8 0zm311.75 -323.44l121.19 0c37,0 66.44,11.07 88.35,33.21 21.9,22.16 32.85,51.73 32.85,88.71l0 59.87c0,37 -10.95,66.57 -32.85,88.71 -21.91,22.15 -51.35,33.23 -88.35,33.23l-43.81 0 0 207.35 -77.38 0 0 -511.08zm117.54 230.71c15.09,0 26.78,-4.13 35.05,-12.4 8.28,-8.28 12.41,-19.97 12.41,-35.05l0 -62.8c0,-15.09 -4.13,-26.76 -12.41,-35.04 -8.27,-8.27 -19.96,-12.41 -35.05,-12.41l-40.16 0 0 157.7 40.16 0zm307.38 287.67c-35.53,0 -64.49,-11.07 -86.88,-33.22 -22.39,-22.15 -33.59,-50.99 -33.59,-86.52l0 -398.64 77.4 0 0 398.64c0,14.6 4.01,26.04 12.05,34.32 8.02,8.27 18.37,12.41 31.02,12.41 12.66,0 23,-4.14 31.03,-12.41 8.04,-8.28 12.05,-19.72 12.05,-34.32l0 -398.64 75.93 0 0 398.64c0,35.53 -10.95,64.37 -32.85,86.52 -21.9,22.15 -50.62,33.22 -86.16,33.22zm392.81 -271.6c18.98,8.76 33.46,21.65 43.44,38.69 9.98,17.03 14.96,37.72 14.96,62.07l0 41.61c0,36.99 -10.95,66.56 -32.85,88.71 -21.91,22.14 -51.35,33.22 -88.34,33.22l-129.23 0 0 -511.08 122.66 0c36.99,0 66.43,11.07 88.34,33.21 21.9,22.16 32.85,51.73 32.85,88.71l0 27.02c0,45.75 -17.27,78.37 -51.83,97.84zm-114.63 -173.77l0 138.72 34.32 0c18.49,0 32.24,-4.51 41.24,-13.51 9.01,-9 13.51,-22.76 13.51,-41.24l0 -36.52c0,-15.09 -4.13,-26.76 -12.41,-35.04 -8.27,-8.27 -19.96,-12.41 -35.05,-12.41l-41.61 0zm95.65 266.49c0,-18.5 -4.51,-32.24 -13.52,-41.25 -9,-9.01 -22.75,-13.51 -41.24,-13.51l-40.89 0 0 153.32 48.18 0c15.09,0 26.78,-4.13 35.05,-12.41 8.28,-8.27 12.42,-19.95 12.42,-35.04l0 -51.11zm147.48 -339.5l77.39 0 0 438.06 137.99 0 0 73.02 -215.38 0 0 -511.08zm275.25 0l77.39 0 0 511.08 -77.39 0 0 -511.08zm276.71 518.38c-36.02,0 -65.22,-11.2 -87.62,-33.59 -22.38,-22.38 -33.58,-51.59 -33.58,-87.61l0 -283.29c0,-36.02 11.2,-65.21 33.58,-87.61 22.4,-22.39 51.6,-33.59 87.62,-33.59 36.02,0 65.22,11.2 87.61,33.59 22.39,22.4 33.59,51.59 33.59,87.61l0 59.88 -75.93 0 0 -59.88c0,-14.6 -4.14,-26.28 -12.42,-35.04 -8.27,-8.76 -18.98,-13.14 -32.12,-13.14 -13.14,0 -23.85,4.38 -32.12,13.14 -8.28,8.76 -12.42,20.44 -12.42,35.04l0 283.29c0,14.6 4.14,26.28 12.42,35.04 8.27,8.77 18.98,13.15 32.12,13.15 13.14,0 23.85,-4.38 32.12,-13.15 8.28,-8.76 12.42,-20.44 12.42,-35.04l0 -73.01 75.93 0 0 73.01c0,36.02 -11.2,65.23 -33.59,87.61 -22.39,22.39 -51.59,33.59 -87.61,33.59zm192.02 -518.38l77.39 0 0 511.08 -77.39 0 0 -511.08zm137.26 0l246.77 0 0 73.01 -84.69 0 0 438.07 -77.39 0 0 -438.07 -84.69 0 0 -73.01zm428.57 397.91l-83.23 0 -16.79 113.17 -77.4 0 84.69 -511.08 103.68 0 84.69 511.08 -78.85 0 -16.79 -113.17zm-10.22 -74.47l-31.4 -213.93 -31.39 213.93 62.79 0zm339.49 187.64l-56.21 -211.01 -40.16 0 0 211.01 -77.39 0 0 -511.08 121.2 0c36.99,0 66.44,11.07 88.34,33.21 21.91,22.16 32.86,51.73 32.86,88.71l0 56.23c0,23.36 -4.62,44.04 -13.88,62.06 -9.24,18 -22.38,32.12 -39.42,42.34l64.98 228.53 -80.32 0zm-96.37 -284.01l40.16 0c15.09,0 26.77,-4.14 35.04,-12.42 8.28,-8.27 12.41,-19.96 12.41,-35.05l0 -59.14c0,-15.09 -4.13,-26.76 -12.41,-35.04 -8.27,-8.27 -19.95,-12.41 -35.04,-12.41l-40.16 0 0 154.06zm240.21 -227.07l77.39 0 0 511.08 -77.39 0 0 -511.08zm314.68 397.91l-83.24 0 -16.79 113.17 -77.39 0 84.69 -511.08 103.68 0 84.69 511.08 -78.85 0 -16.79 -113.17zm-10.22 -74.47l-31.4 -213.93 -31.4 213.93 62.8 0z"/>
  <path class="fil10" d="M1640.74 11939.2c-36.99,0 -66.93,-11.32 -89.8,-33.95 -22.88,-22.64 -34.32,-52.45 -34.32,-89.44l0 -278.91c0,-36.99 11.44,-66.8 34.32,-89.44 22.87,-22.63 52.81,-33.95 89.8,-33.95 36.99,0 66.93,11.32 89.8,33.95 22.88,22.64 34.32,52.45 34.32,89.44l0 278.91c0,36.99 -11.44,66.8 -34.32,89.44 -22.87,22.63 -52.81,33.95 -89.8,33.95zm0 -73.01c14.6,0 26.04,-4.38 34.31,-13.15 8.28,-8.76 12.42,-21.17 12.42,-37.23l0 -278.91c0,-16.06 -4.14,-28.47 -12.42,-37.23 -8.27,-8.76 -19.71,-13.14 -34.31,-13.14 -14.6,0 -26.04,4.38 -34.31,13.14 -8.28,8.76 -12.42,21.17 -12.42,37.23l0 278.91c0,16.06 4.14,28.47 12.42,37.23 8.27,8.77 19.71,13.15 34.31,13.15zm394.26 -198.59c18.98,8.76 33.47,21.65 43.44,38.69 9.98,17.03 14.97,37.72 14.97,62.06l0 41.62c0,36.99 -10.96,66.56 -32.86,88.71 -21.9,22.14 -51.34,33.22 -88.34,33.22l-129.23 0 0 -511.08 122.66 0c37,0 66.44,11.07 88.34,33.21 21.9,22.16 32.86,51.73 32.86,88.71l0 27.02c0,45.75 -17.28,78.37 -51.84,97.84zm-114.63 -173.77l0 138.72 34.32 0c18.5,0 32.24,-4.51 41.25,-13.51 9.01,-9 13.51,-22.76 13.51,-41.24l0 -36.52c0,-15.09 -4.14,-26.76 -12.42,-35.04 -8.27,-8.27 -19.95,-12.41 -35.04,-12.41l-41.62 0zm95.65 266.49c0,-18.5 -4.5,-32.25 -13.51,-41.25 -9.01,-9.01 -22.75,-13.51 -41.25,-13.51l-40.89 0 0 153.32 48.19 0c15.09,0 26.77,-4.13 35.04,-12.41 8.28,-8.27 12.42,-19.95 12.42,-35.04l0 -51.11zm321.25 171.58l-56.22 -211.01 -40.16 0 0 211.01 -77.38 0 0 -511.08 121.19 0c36.99,0 66.44,11.07 88.34,33.21 21.91,22.16 32.86,51.73 32.86,88.71l0 56.23c0,23.36 -4.62,44.04 -13.88,62.06 -9.24,18 -22.38,32.12 -39.42,42.34l64.98 228.53 -80.31 0zm-96.38 -284.01l40.16 0c15.09,0 26.78,-4.14 35.05,-12.42 8.27,-8.27 12.4,-19.96 12.4,-35.05l0 -59.14c0,-15.09 -4.13,-26.76 -12.4,-35.04 -8.27,-8.27 -19.96,-12.41 -35.05,-12.41l-40.16 0 0 154.06zm392.8 170.84l-83.23 0 -16.79 113.17 -77.39 0 84.69 -511.08 103.68 0 84.69 511.08 -78.86 0 -16.79 -113.17zm-10.22 -74.47l-31.39 -213.93 -31.4 213.93 62.79 0zm273.06 194.94c-24.33,0 -45.99,-5.35 -64.98,-16.06 -18.98,-10.72 -33.7,-25.56 -44.17,-44.54 -10.47,-18.98 -15.7,-40.65 -15.7,-64.98l0 -18.26 74.48 -8.03 0 18.98c0,18.5 4.38,33.11 13.14,43.81 8.76,10.71 20.93,16.07 36.5,16.07 15.09,0 27.14,-4.38 36.14,-13.15 9,-8.76 13.51,-20.68 13.51,-35.77 0,-16.55 -4.75,-32.37 -14.24,-47.46 -9.49,-15.09 -28.35,-36.02 -56.58,-62.78 -37.97,-36.02 -63.89,-65.96 -77.76,-89.81 -13.87,-23.85 -20.8,-49.89 -20.8,-78.13 0,-38.45 10.46,-68.99 31.38,-91.63 20.93,-22.63 49.66,-33.95 86.16,-33.95 36.5,0 65.23,11.45 86.16,34.32 20.92,22.88 31.38,53.55 31.38,92l0 13.14 -74.47 8.03 0 -14.6c0,-19.47 -3.64,-34.32 -10.95,-44.54 -7.29,-10.22 -17.76,-15.33 -31.39,-15.33 -13.63,0 -24.09,4.14 -31.39,12.41 -7.31,8.27 -10.96,20.44 -10.96,36.51 0,16.05 4.87,31.51 14.6,46.36 9.74,14.84 28.48,36.14 56.23,63.89 37.96,37.96 63.88,68.5 77.75,91.62 13.87,23.12 20.81,48.56 20.81,76.3 0,24.33 -5.23,46 -15.7,64.98 -10.46,18.98 -25.19,33.82 -44.17,44.54 -18.98,10.71 -40.64,16.06 -64.98,16.06zm593.57 -518.38l-103.67 297.16 0 213.92 -77.39 0 0 -213.92 -103.68 -297.16 82.51 0 59.86 194.94 61.33 -194.94 81.04 0zm554.89 0l0 511.08 -77.39 0 0 -350.46 -72.28 350.46 -54.03 0 -72.28 -350.46 0 350.46 -75.93 0 0 -511.08 109.52 0 67.16 326.36 64.26 -326.36 110.97 0zm237.29 397.91l-83.23 0 -16.79 113.17 -77.4 0 84.69 -511.08 103.68 0 84.69 511.08 -78.85 0 -16.79 -113.17zm-10.22 -74.47l-31.4 -213.93 -31.39 213.93 62.79 0zm165.73 -323.44l85.43 0 98.56 343.15 0 -343.15 75.93 0 0 511.08 -81.78 0 -102.21 -327.1 0 327.1 -75.93 0 0 -511.08zm319.79 0l246.78 0 0 73.01 -84.69 0 0 438.07 -77.4 0 0 -438.07 -84.69 0 0 -73.01zm306.65 0l219.76 0 0 73.01 -142.38 0 0 142.37 113.18 0 0 73.02 -113.18 0 0 149.66 142.38 0 0 73.02 -219.76 0 0 -511.08zm284.74 0l85.42 0 98.57 343.15 0 -343.15 75.93 0 0 511.08 -81.78 0 -102.21 -327.1 0 327.1 -75.93 0 0 -511.08zm344.62 0l77.38 0 0 511.08 -77.38 0 0 -511.08zm513.99 0l0 511.08 -77.39 0 0 -350.46 -72.28 350.46 -54.03 0 -72.28 -350.46 0 350.46 -75.93 0 0 -511.08 109.52 0 67.17 326.36 64.25 -326.36 110.97 0zm84.7 0l77.39 0 0 511.08 -77.39 0 0 -511.08zm162.08 0l219.76 0 0 73.01 -142.37 0 0 142.37 113.17 0 0 73.02 -113.17 0 0 149.66 142.37 0 0 73.02 -219.76 0 0 -511.08zm284.75 0l85.42 0 98.57 343.15 0 -343.15 75.92 0 0 511.08 -81.77 0 -102.21 -327.1 0 327.1 -75.93 0 0 -511.08zm319.79 0l246.77 0 0 73.01 -84.69 0 0 438.07 -77.39 0 0 -438.07 -84.69 0 0 -73.01zm424.19 518.38c-37,0 -66.93,-11.32 -89.81,-33.95 -22.87,-22.64 -34.31,-52.45 -34.31,-89.44l0 -278.91c0,-36.99 11.44,-66.8 34.31,-89.44 22.88,-22.63 52.81,-33.95 89.81,-33.95 36.99,0 66.92,11.32 89.8,33.95 22.88,22.64 34.31,52.45 34.31,89.44l0 278.91c0,36.99 -11.43,66.8 -34.31,89.44 -22.88,22.63 -52.81,33.95 -89.8,33.95zm0 -73.01c14.6,0 26.04,-4.38 34.31,-13.15 8.28,-8.76 12.42,-21.17 12.42,-37.23l0 -278.91c0,-16.06 -4.14,-28.47 -12.42,-37.23 -8.27,-8.76 -19.71,-13.14 -34.31,-13.14 -14.6,0 -26.05,4.38 -34.31,13.14 -8.28,8.76 -12.42,21.17 -12.42,37.23l0 278.91c0,16.06 4.14,28.47 12.42,37.23 8.26,8.77 19.71,13.15 34.31,13.15z"/>
  <path class="fil5" d="M1744.42 8971.9c188.46,0 376.91,0 565.37,0 30.13,0 59.61,5.43 87.74,16.26 27.25,10.51 52.43,24.98 74.81,43.73 22.37,18.71 40.76,41.15 55.24,66.46 14.82,25.94 24.53,54.07 28.37,83.13 2.6,16.7 5.2,33.4 7.8,50.1 -63.69,0 -127.38,0 -191.06,0 -3.7,-9.96 -7.39,-19.92 -11.08,-29.88 -0.1,-0.34 -0.19,-0.68 -0.29,-1.02 -3.18,-11.19 -9.46,-19.63 -18.69,-26.65 -9.81,-7.49 -20.62,-10.8 -32.9,-10.82 -188.46,-0.45 -376.92,-0.9 -565.38,-1.35 -24.31,-0.06 -45.94,6.65 -64.38,22.66 -15.78,13.72 -24.4,29.81 -24.4,50.84 0,14.26 0,28.5 0,42.76 0,7.19 2.21,14.23 5.43,20.57 4.44,8.76 10.35,16.42 17.53,23.09 8.14,7.57 17.94,13.29 28.17,17.59 11.99,5.03 24.81,6.77 37.72,6.77 173.69,0 347.38,0 521.06,0 80.65,-0.86 162.53,16.39 223.02,73.13 0.34,0.35 0.7,0.68 1.04,1.03 49.45,51.58 68.16,117.74 68.16,188.12 0,14.71 0,29.42 0,44.13 0,36.02 -7.94,70.43 -23.64,102.85 -15.53,32.12 -36.81,60.21 -63.27,84.17 -27.15,24.56 -58.35,43.17 -92.5,56.29 -36.05,13.85 -73.97,20.15 -112.53,20.15 -188.21,0 -376.44,0 -564.65,0 -30.37,0 -59.97,-5.27 -88.27,-16.28 -27.31,-10.6 -52.37,-25.54 -74.57,-44.65 -22.11,-19.01 -40.6,-41.37 -55.75,-66.27 -15.85,-26.1 -25.8,-54.79 -29.79,-85.09 -0.05,-0.45 -0.1,-0.91 -0.15,-1.36 -1.28,-15.81 -2.57,-31.6 -3.85,-47.4 62.93,0 125.86,0 188.79,0 3.71,10.03 7.42,20.04 11.13,30.07 0.11,0.41 0.22,0.81 0.33,1.22 3.02,11.21 9.05,19.63 18.56,26.26 10.25,7.11 21.13,10.79 33.64,10.81 188.21,0.47 376.43,0.92 564.65,1.39 24.05,0.06 45.28,-6.49 63.65,-22.15 15.71,-13.43 23.74,-29.29 23.74,-50.01 0,-14.71 0,-29.42 0,-44.13 0,-7.81 -2.12,-15.46 -5.21,-22.57 -3.62,-8.4 -8.97,-15.56 -15.64,-21.77 -8.06,-7.47 -17.74,-12.89 -28.44,-17.06 -11.98,-4.89 -25.21,-6.64 -38.09,-6.62 -173.78,0.46 -347.57,0.93 -521.34,1.38 -80.18,0.21 -163.93,-16.52 -223.22,-74.4 -51.53,-50.3 -68.79,-119.09 -68.79,-189.26 0,-14.26 0,-28.5 0,-42.76 0,-36.44 7.51,-71.39 23.36,-104.22 15.37,-31.78 36.39,-59.66 62.65,-83.3 27.15,-24.43 58.68,-42.78 92.72,-55.82 36.3,-13.89 74.4,-20.12 113.2,-20.12zm2172.48 664.67c0,78.67 -27.91,145.91 -83.72,201.72 -55.83,55.8 -123.06,83.73 -201.72,83.73 -190.29,0 -380.57,0 -570.86,0 -78.64,0 -145.89,-27.93 -201.7,-83.73 -55.82,-55.81 -83.73,-123.05 -83.73,-201.72 0,-126.85 0,-253.71 0,-380.56 0,-78.66 27.91,-145.89 83.73,-201.71 55.81,-55.82 123.06,-83.72 201.7,-83.72 190.29,0 380.57,0 570.86,0 78.66,0 145.89,27.9 201.72,83.72 55.81,55.82 83.72,123.05 83.72,201.71 0,126.85 0,253.71 0,380.56zm-190.28 0c0,-126.85 0,-253.71 0,-380.56 0,-26.64 -9.2,-49.16 -27.6,-67.56 -18.4,-18.39 -40.91,-27.58 -67.56,-27.58 -190.29,0 -380.57,0 -570.86,0 -26.64,0 -49.15,9.19 -67.55,27.58 -18.39,18.4 -27.58,40.92 -27.58,67.56 0,126.85 0,253.71 0,380.56 0,26.65 9.19,49.16 27.58,67.55 18.4,18.39 40.91,27.6 67.55,27.6 190.29,0 380.57,0 570.86,0 26.65,0 49.16,-9.21 67.56,-27.6 18.4,-18.39 27.6,-40.9 27.6,-67.55zm1583.3 0c0,78.67 -27.92,145.91 -83.74,201.72 -55.82,55.8 -123.04,83.73 -201.7,83.73 -285.43,0 -570.86,0 -856.29,0 0,-317.15 0,-634.29 0,-951.44 285.43,0 570.86,0 856.29,0 78.66,0 145.88,27.9 201.7,83.72 55.82,55.82 83.74,123.05 83.74,201.71 0,126.85 0,253.71 0,380.56zm-190.28 0c0,-126.85 0,-253.71 0,-380.56 0,-26.64 -9.22,-49.16 -27.6,-67.56 -18.4,-18.39 -40.92,-27.58 -67.56,-27.58 -222,0 -444,0 -666,0 0,190.28 0,380.57 0,570.85 222,0 444,0 666,0 26.64,0 49.16,-9.21 67.56,-27.6 18.38,-18.39 27.6,-40.9 27.6,-67.55zm1297.85 0c0,78.67 -27.91,145.91 -83.71,201.72 -55.82,55.8 -123.07,83.73 -201.73,83.73 -190.28,0 -380.57,0 -570.85,0 0,-63.43 0,-126.87 0,-190.3 190.28,0 380.57,0 570.85,0 26.67,0 49.17,-9.21 67.56,-27.6 18.4,-18.39 27.6,-40.9 27.6,-67.55 0,-158.56 0,-317.14 0,-475.7 0,0 0,0 0,0 0,-63.43 0,-126.86 0,-190.29 63.43,0 126.85,0 190.28,0 0,221.99 0,444 0,665.99zm1393.02 285.45c-63.43,0 -126.85,0 -190.28,0 0,-63.43 0,-126.87 0,-190.3 -253.72,0 -507.43,0 -761.15,0 0,63.43 0,126.87 0,190.3 -63.43,0 -126.87,0 -190.3,0 0,-222.01 0,-444 0,-666.01 0,-78.66 27.91,-145.89 83.73,-201.71 55.82,-55.82 123.05,-83.72 201.69,-83.72 190.29,0 380.59,0 570.88,0 78.66,0 145.89,27.9 201.69,83.72 55.82,55.82 83.74,123.05 83.74,201.71 0,222.01 0,444 0,666.01zm-190.28 -380.58c0,-95.15 0,-190.28 0,-285.43 0,-26.64 -9.22,-49.16 -27.6,-67.56 -18.39,-18.39 -40.92,-27.58 -67.55,-27.58 -190.29,0 -380.59,0 -570.88,0 -26.63,0 -49.15,9.19 -67.55,27.58 -18.38,18.4 -27.57,40.92 -27.57,67.56 0,95.15 0,190.28 0,285.43 253.72,0 507.43,0 761.15,0z"/>
  <path class="fil2" d="M1676.72 8912.95c188.45,0 376.91,0 565.37,0 30.13,0 59.61,5.43 87.74,16.26 27.25,10.51 52.42,24.98 74.81,43.73 22.37,18.71 40.75,41.15 55.24,66.46 14.82,25.94 24.53,54.07 28.37,83.13 2.6,16.7 5.19,33.4 7.79,50.1 -63.68,0 -127.37,0 -191.05,0 -3.7,-9.96 -7.39,-19.92 -11.09,-29.88 -0.1,-0.34 -0.18,-0.68 -0.28,-1.02 -3.18,-11.19 -9.47,-19.63 -18.69,-26.65 -9.81,-7.49 -20.62,-10.8 -32.91,-10.82 -188.45,-0.45 -376.91,-0.9 -565.37,-1.35 -24.31,-0.06 -45.94,6.65 -64.39,22.66 -15.78,13.72 -24.39,29.81 -24.39,50.84 0,14.26 0,28.51 0,42.76 0,7.19 2.21,14.23 5.43,20.57 4.44,8.76 10.35,16.42 17.53,23.09 8.14,7.57 17.94,13.29 28.16,17.59 12,5.03 24.82,6.77 37.73,6.77 173.68,0 347.37,0 521.06,0 80.64,-0.86 162.53,16.39 223.02,73.14 0.34,0.34 0.7,0.67 1.04,1.02 49.45,51.58 68.16,117.74 68.16,188.12 0,14.72 0,29.42 0,44.13 0,36.03 -7.94,70.43 -23.64,102.85 -15.54,32.12 -36.81,60.21 -63.27,84.17 -27.16,24.56 -58.35,43.17 -92.51,56.29 -36.04,13.85 -73.96,20.15 -112.52,20.15 -188.21,0 -376.44,0 -564.65,0 -30.37,0 -59.97,-5.27 -88.27,-16.28 -27.31,-10.6 -52.37,-25.54 -74.57,-44.65 -22.11,-19.01 -40.6,-41.37 -55.75,-66.27 -15.85,-26.1 -25.8,-54.79 -29.79,-85.09 -0.06,-0.45 -0.1,-0.91 -0.16,-1.36 -1.27,-15.81 -2.56,-31.6 -3.84,-47.4 62.93,0 125.86,0 188.79,0 3.71,10.03 7.42,20.05 11.13,30.07 0.11,0.41 0.22,0.81 0.33,1.22 3.02,11.21 9.05,19.63 18.56,26.26 10.25,7.11 21.13,10.79 33.63,10.81 188.22,0.47 376.44,0.92 564.66,1.39 24.05,0.06 45.28,-6.48 63.65,-22.15 15.71,-13.43 23.74,-29.29 23.74,-50.01 0,-14.71 0,-29.41 0,-44.13 0,-7.8 -2.12,-15.46 -5.21,-22.57 -3.62,-8.4 -8.97,-15.56 -15.64,-21.77 -8.07,-7.47 -17.74,-12.89 -28.44,-17.06 -11.99,-4.89 -25.21,-6.64 -38.09,-6.61 -173.78,0.45 -347.57,0.92 -521.35,1.37 -80.17,0.21 -163.92,-16.52 -223.21,-74.4 -51.53,-50.3 -68.8,-119.09 -68.8,-189.26 0,-14.25 0,-28.5 0,-42.76 0,-36.44 7.52,-71.39 23.37,-104.22 15.37,-31.78 36.39,-59.66 62.65,-83.29 27.15,-24.44 58.68,-42.79 92.71,-55.83 36.31,-13.89 74.41,-20.12 113.21,-20.12zm2172.48 664.67c0,78.67 -27.91,145.91 -83.72,201.72 -55.84,55.8 -123.06,83.73 -201.72,83.73 -190.29,0 -380.57,0 -570.86,0 -78.64,0 -145.89,-27.93 -201.7,-83.73 -55.82,-55.81 -83.73,-123.05 -83.73,-201.72 0,-126.85 0,-253.71 0,-380.56 0,-78.66 27.91,-145.89 83.73,-201.71 55.81,-55.82 123.06,-83.72 201.7,-83.72 190.29,0 380.57,0 570.86,0 78.66,0 145.88,27.9 201.72,83.72 55.81,55.82 83.72,123.05 83.72,201.71 0,126.85 0,253.71 0,380.56zm-190.28 0c0,-126.85 0,-253.71 0,-380.56 0,-26.64 -9.2,-49.16 -27.6,-67.56 -18.4,-18.39 -40.91,-27.58 -67.56,-27.58 -190.29,0 -380.57,0 -570.86,0 -26.64,0 -49.15,9.19 -67.55,27.58 -18.39,18.4 -27.58,40.92 -27.58,67.56 0,126.85 0,253.71 0,380.56 0,26.65 9.19,49.16 27.58,67.55 18.4,18.39 40.91,27.6 67.55,27.6 190.29,0 380.57,0 570.86,0 26.65,0 49.16,-9.21 67.56,-27.6 18.4,-18.39 27.6,-40.9 27.6,-67.55zm1583.29 0c0,78.67 -27.91,145.91 -83.74,201.72 -55.81,55.8 -123.04,83.73 -201.69,83.73 -285.44,0 -570.86,0 -856.3,0 0,-317.15 0,-634.29 0,-951.44 285.44,0 570.86,0 856.3,0 78.65,0 145.88,27.9 201.69,83.72 55.83,55.82 83.74,123.05 83.74,201.71 0,126.85 0,253.71 0,380.56zm-190.27 0c0,-126.85 0,-253.71 0,-380.56 0,-26.64 -9.22,-49.16 -27.6,-67.56 -18.4,-18.39 -40.92,-27.58 -67.56,-27.58 -222.01,0 -444,0 -666.01,0 0,190.28 0,380.57 0,570.85 222.01,0 444,0 666.01,0 26.64,0 49.16,-9.21 67.56,-27.6 18.38,-18.39 27.6,-40.9 27.6,-67.55zm1297.85 0c0,78.67 -27.91,145.91 -83.71,201.72 -55.82,55.8 -123.07,83.73 -201.73,83.73 -190.28,0 -380.57,0 -570.85,0 0,-63.43 0,-126.87 0,-190.3 190.28,0 380.57,0 570.85,0 26.66,0 49.17,-9.21 67.56,-27.6 18.4,-18.39 27.6,-40.9 27.6,-67.55 0,-158.56 0,-317.14 0,-475.7 0,0 0,0 0,0 0,-63.43 0,-126.86 0,-190.29 63.43,0 126.85,0 190.28,0 0,221.99 0,444 0,665.99zm1393.02 285.45c-63.43,0 -126.85,0 -190.28,0 0,-63.43 0,-126.87 0,-190.3 -253.72,0 -507.43,0 -761.15,0 0,63.43 0,126.87 0,190.3 -63.43,0 -126.87,0 -190.3,0 0,-222.01 0,-444 0,-666.01 0,-78.66 27.91,-145.89 83.72,-201.71 55.83,-55.82 123.06,-83.72 201.7,-83.72 190.29,0 380.59,0 570.88,0 78.66,0 145.88,27.9 201.68,83.72 55.83,55.82 83.75,123.05 83.75,201.71 0,222.01 0,444 0,666.01zm-190.28 -380.58c0,-95.15 0,-190.28 0,-285.43 0,-26.64 -9.22,-49.16 -27.6,-67.56 -18.39,-18.39 -40.92,-27.58 -67.55,-27.58 -190.29,0 -380.59,0 -570.88,0 -26.63,0 -49.15,9.19 -67.55,27.58 -18.38,18.4 -27.57,40.92 -27.57,67.56 0,95.15 0,190.28 0,285.43 253.72,0 507.43,0 761.15,0z"/>
 </g>
</svg>
