<?xml version="1.0" encoding="UTF-8"?>
<!DOCTYPE svg PUBLIC "-//W3C//DTD SVG 1.1//EN" "http://www.w3.org/Graphics/SVG/1.1/DTD/svg11.dtd">
<!-- Creator: CorelDRAW 2019 -->
<svg xmlns="http://www.w3.org/2000/svg" xml:space="preserve" width="69.4509mm" height="62.0888mm" version="1.1" style="shape-rendering:geometricPrecision; text-rendering:geometricPrecision; image-rendering:optimizeQuality; fill-rule:evenodd; clip-rule:evenodd"
viewBox="0 0 6945.1 6208.89"
 xmlns:xlink="http://www.w3.org/1999/xlink">
 <defs>
  <style type="text/css">
   <![CDATA[
    .fil3 {fill:#FEFEFE}
    .fil0 {fill:#FEFEFE}
    .fil4 {fill:#363564}
    .fil5 {fill:#9D325E}
    .fil2 {fill:#EC268F}
    .fil1 {fill:#606062;fill-opacity:0.349020}
    .fil7 {fill:url(#id0)}
    .fil6 {fill:url(#id1)}
   ]]>
  </style>
  <radialGradient id="id0" gradientUnits="userSpaceOnUse" gradientTransform="matrix(1.57546 -0.818674 0.471281 1.3346 -3066 2409)" cx="3737.1" cy="1943.44" r="761.97" fx="3737.1" fy="1943.44">
   <stop offset="0" style="stop-opacity:1; stop-color:#EC268F"/>
   <stop offset="0.870588" style="stop-opacity:1; stop-color:#C42C76"/>
   <stop offset="1" style="stop-opacity:1; stop-color:#9C325E"/>
  </radialGradient>
  <radialGradient id="id1" gradientUnits="userSpaceOnUse" gradientTransform="matrix(-1.56865 0.35768 0.0564566 -1.45184 6879 4806)" cx="2729.81" cy="2358.46" r="780.19" fx="2729.81" fy="2358.46">
   <stop offset="0" style="stop-opacity:1; stop-color:#3E4095"/>
   <stop offset="0.878431" style="stop-opacity:1; stop-color:#3A3A7C"/>
   <stop offset="1" style="stop-opacity:1; stop-color:#363564"/>
  </radialGradient>
 </defs>
 <g id="Capa_x0020_1">
  <metadata id="CorelCorpID_0Corel-Layer"/>
  <rect class="fil0" x="-0.01" y="-0" width="6945.1" height="6208.89"/>
  <g id="_1651700816">
   <path class="fil1" d="M621.19 4956.92l565.37 0c30.13,0 59.61,5.43 87.74,16.26 27.25,10.51 52.43,24.98 74.81,43.73 22.37,18.71 40.76,41.15 55.24,66.46 14.82,25.94 24.53,54.07 28.37,83.13l7.8 50.1 -191.06 0 -11.08 -29.88 -0.29 -1.02c-3.18,-11.19 -9.46,-19.63 -18.69,-26.65 -9.81,-7.49 -20.62,-10.8 -32.9,-10.82l-565.38 -1.35c-24.31,-0.06 -45.94,6.65 -64.38,22.66 -15.78,13.72 -24.4,29.81 -24.4,50.84l0 42.76c0,7.19 2.21,14.23 5.43,20.57 4.44,8.76 10.35,16.42 17.53,23.09 8.14,7.57 17.94,13.29 28.17,17.59 11.99,5.03 24.81,6.77 37.72,6.77l521.06 0c80.65,-0.86 162.53,16.39 223.02,73.13l1.04 1.03c49.45,51.58 68.16,117.74 68.16,188.12l0 44.13c0,36.02 -7.94,70.43 -23.64,102.85 -15.53,32.12 -36.81,60.21 -63.27,84.17 -27.15,24.56 -58.35,43.17 -92.5,56.29 -36.05,13.85 -73.97,20.15 -112.53,20.15l-564.65 0c-30.37,0 -59.97,-5.27 -88.27,-16.28 -27.31,-10.6 -52.37,-25.54 -74.57,-44.65 -22.11,-19.01 -40.6,-41.37 -55.75,-66.27 -15.85,-26.1 -25.8,-54.79 -29.79,-85.09l-0.15 -1.36 -3.85 -47.4 188.79 0 11.13 30.07 0.33 1.22c3.02,11.21 9.05,19.63 18.56,26.26 10.25,7.11 21.13,10.79 33.64,10.81l564.65 1.39c24.05,0.06 45.28,-6.49 63.65,-22.15 15.71,-13.43 23.74,-29.29 23.74,-50.01l0 -44.13c0,-7.81 -2.12,-15.46 -5.21,-22.57 -3.62,-8.4 -8.97,-15.56 -15.64,-21.77 -8.06,-7.47 -17.74,-12.89 -28.44,-17.06 -11.98,-4.89 -25.21,-6.64 -38.09,-6.62l-521.34 1.38c-80.18,0.21 -163.93,-16.52 -223.22,-74.4 -51.53,-50.3 -68.79,-119.09 -68.79,-189.26l0 -42.76c0,-36.44 7.51,-71.39 23.36,-104.22 15.37,-31.78 36.39,-59.66 62.65,-83.3 27.15,-24.43 58.68,-42.78 92.72,-55.82 36.3,-13.89 74.4,-20.12 113.2,-20.12zm2172.48 664.67c0,78.67 -27.91,145.91 -83.72,201.72 -55.83,55.8 -123.06,83.73 -201.72,83.73l-570.86 0c-78.64,0 -145.89,-27.93 -201.7,-83.73 -55.82,-55.81 -83.73,-123.05 -83.73,-201.72l0 -380.56c0,-78.66 27.91,-145.89 83.73,-201.71 55.81,-55.82 123.06,-83.72 201.7,-83.72l570.86 0c78.66,0 145.89,27.9 201.72,83.72 55.81,55.82 83.72,123.05 83.72,201.71l0 380.56zm-190.28 0l0 -380.56c0,-26.64 -9.2,-49.16 -27.6,-67.56 -18.4,-18.39 -40.91,-27.58 -67.56,-27.58l-570.86 0c-26.64,0 -49.15,9.19 -67.55,27.58 -18.39,18.4 -27.58,40.92 -27.58,67.56l0 380.56c0,26.65 9.19,49.16 27.58,67.55 18.4,18.39 40.91,27.6 67.55,27.6l570.86 0c26.65,0 49.16,-9.21 67.56,-27.6 18.4,-18.39 27.6,-40.9 27.6,-67.55zm1583.3 0c0,78.67 -27.92,145.91 -83.74,201.72 -55.82,55.8 -123.04,83.73 -201.7,83.73l-856.29 0 0 -951.44 856.29 0c78.66,0 145.88,27.9 201.7,83.72 55.82,55.82 83.74,123.05 83.74,201.71l0 380.56zm-190.28 0l0 -380.56c0,-26.64 -9.22,-49.16 -27.6,-67.56 -18.4,-18.39 -40.92,-27.58 -67.56,-27.58l-666 0 0 570.85 666 0c26.64,0 49.16,-9.21 67.56,-27.6 18.38,-18.39 27.6,-40.9 27.6,-67.55zm1297.85 0c0,78.67 -27.91,145.91 -83.71,201.72 -55.82,55.8 -123.07,83.73 -201.73,83.73l-570.85 0 0 -190.3 570.85 0c26.67,0 49.17,-9.21 67.56,-27.6 18.4,-18.39 27.6,-40.9 27.6,-67.55l0 -475.7 0 0 0 -190.29 190.28 0 0 665.99zm1393.02 285.45l-190.28 0 0 -190.3 -761.15 0 0 190.3 -190.3 0 0 -666.01c0,-78.66 27.91,-145.89 83.73,-201.71 55.82,-55.82 123.05,-83.72 201.69,-83.72l570.88 0c78.66,0 145.89,27.9 201.69,83.72 55.82,55.82 83.74,123.05 83.74,201.71l0 666.01zm-190.28 -380.58l0 -285.43c0,-26.64 -9.22,-49.16 -27.6,-67.56 -18.39,-18.39 -40.92,-27.58 -67.55,-27.58l-570.88 0c-26.63,0 -49.15,9.19 -67.55,27.58 -18.38,18.4 -27.57,40.92 -27.57,67.56l0 285.43 761.15 0z"/>
   <path class="fil2" d="M553.49 4897.97l565.37 0c30.13,0 59.61,5.43 87.74,16.26 27.25,10.51 52.42,24.98 74.81,43.73 22.37,18.71 40.75,41.15 55.24,66.46 14.82,25.94 24.53,54.07 28.37,83.13l7.79 50.1 -191.05 0 -11.09 -29.88 -0.28 -1.02c-3.18,-11.19 -9.47,-19.63 -18.69,-26.65 -9.81,-7.49 -20.62,-10.8 -32.91,-10.82l-565.37 -1.35c-24.31,-0.06 -45.94,6.65 -64.39,22.66 -15.78,13.72 -24.39,29.81 -24.39,50.84l0 42.76c0,7.19 2.21,14.23 5.43,20.57 4.44,8.76 10.35,16.42 17.53,23.09 8.14,7.57 17.94,13.29 28.16,17.59 12,5.03 24.82,6.77 37.73,6.77l521.06 0c80.64,-0.86 162.53,16.39 223.02,73.14l1.04 1.02c49.45,51.58 68.16,117.74 68.16,188.12l0 44.13c0,36.03 -7.94,70.43 -23.64,102.85 -15.54,32.12 -36.81,60.21 -63.27,84.17 -27.16,24.56 -58.35,43.17 -92.51,56.29 -36.04,13.85 -73.96,20.15 -112.52,20.15l-564.65 0c-30.37,0 -59.97,-5.27 -88.27,-16.28 -27.31,-10.6 -52.37,-25.54 -74.57,-44.65 -22.11,-19.01 -40.6,-41.37 -55.75,-66.27 -15.85,-26.1 -25.8,-54.79 -29.79,-85.09l-0.16 -1.36 -3.84 -47.4 188.79 0 11.13 30.07 0.33 1.22c3.02,11.21 9.05,19.63 18.56,26.26 10.25,7.11 21.13,10.79 33.63,10.81l564.66 1.39c24.05,0.06 45.28,-6.48 63.65,-22.15 15.71,-13.43 23.74,-29.29 23.74,-50.01l0 -44.13c0,-7.8 -2.12,-15.46 -5.21,-22.57 -3.62,-8.4 -8.97,-15.56 -15.64,-21.77 -8.07,-7.47 -17.74,-12.89 -28.44,-17.06 -11.99,-4.89 -25.21,-6.64 -38.09,-6.61l-521.35 1.37c-80.17,0.21 -163.92,-16.52 -223.21,-74.4 -51.53,-50.3 -68.8,-119.09 -68.8,-189.26l0 -42.76c0,-36.44 7.52,-71.39 23.37,-104.22 15.37,-31.78 36.39,-59.66 62.65,-83.29 27.15,-24.44 58.68,-42.79 92.71,-55.83 36.31,-13.89 74.41,-20.12 113.21,-20.12zm2172.48 664.67c0,78.67 -27.91,145.91 -83.72,201.72 -55.84,55.8 -123.06,83.73 -201.72,83.73l-570.86 0c-78.64,0 -145.89,-27.93 -201.7,-83.73 -55.82,-55.81 -83.73,-123.05 -83.73,-201.72l0 -380.56c0,-78.66 27.91,-145.89 83.73,-201.71 55.81,-55.82 123.06,-83.72 201.7,-83.72l570.86 0c78.66,0 145.88,27.9 201.72,83.72 55.81,55.82 83.72,123.05 83.72,201.71l0 380.56zm-190.28 0l0 -380.56c0,-26.64 -9.2,-49.16 -27.6,-67.56 -18.4,-18.39 -40.91,-27.58 -67.56,-27.58l-570.86 0c-26.64,0 -49.15,9.19 -67.55,27.58 -18.39,18.4 -27.58,40.92 -27.58,67.56l0 380.56c0,26.65 9.19,49.16 27.58,67.55 18.4,18.39 40.91,27.6 67.55,27.6l570.86 0c26.65,0 49.16,-9.21 67.56,-27.6 18.4,-18.39 27.6,-40.9 27.6,-67.55zm1583.29 0c0,78.67 -27.91,145.91 -83.74,201.72 -55.81,55.8 -123.04,83.73 -201.69,83.73l-856.3 0 0 -951.44 856.3 0c78.65,0 145.88,27.9 201.69,83.72 55.83,55.82 83.74,123.05 83.74,201.71l0 380.56zm-190.27 0l0 -380.56c0,-26.64 -9.22,-49.16 -27.6,-67.56 -18.4,-18.39 -40.92,-27.58 -67.56,-27.58l-666.01 0 0 570.85 666.01 0c26.64,0 49.16,-9.21 67.56,-27.6 18.38,-18.39 27.6,-40.9 27.6,-67.55zm1297.85 0c0,78.67 -27.91,145.91 -83.71,201.72 -55.82,55.8 -123.07,83.73 -201.73,83.73l-570.85 0 0 -190.3 570.85 0c26.66,0 49.17,-9.21 67.56,-27.6 18.4,-18.39 27.6,-40.9 27.6,-67.55l0 -475.7 0 0 0 -190.29 190.28 0 0 665.99zm1393.02 285.45l-190.28 0 0 -190.3 -761.15 0 0 190.3 -190.3 0 0 -666.01c0,-78.66 27.91,-145.89 83.72,-201.71 55.83,-55.82 123.06,-83.72 201.7,-83.72l570.88 0c78.66,0 145.88,27.9 201.68,83.72 55.83,55.82 83.75,123.05 83.75,201.71l0 666.01zm-190.28 -380.58l0 -285.43c0,-26.64 -9.22,-49.16 -27.6,-67.56 -18.39,-18.39 -40.92,-27.58 -67.55,-27.58l-570.88 0c-26.63,0 -49.15,9.19 -67.55,27.58 -18.38,18.4 -27.57,40.92 -27.57,67.56l0 285.43 761.15 0z"/>
   <g>
    <path class="fil1" d="M2749.3 846.58c1311.8,-638.72 2683,-524.49 3062.59,255.15 379.61,779.62 -376.13,1929.42 -1687.96,2568.14 -1311.8,638.73 -2682.98,524.52 -3062.58,-255.12 -379.6,-779.64 376.11,-1929.45 1687.95,-2568.17l0 0z"/>
    <path class="fil3" d="M2544.87 715.16c1311.8,-638.72 2682.99,-524.49 3062.59,255.15 379.61,779.62 -376.13,1929.42 -1687.96,2568.14 -1311.8,638.73 -2682.98,524.52 -3062.58,-255.12 -379.61,-779.64 376.11,-1929.45 1687.95,-2568.17z"/>
    <path class="fil3" d="M2782.89 1199.7c22.42,202.76 591.42,325.32 756.2,365.25 252.26,61.15 565.47,127.33 808.49,198.12 513.1,149.51 596.38,709.97 391.17,1087.32 -86.53,159.08 -258.73,353 -568.5,555.96 -81.11,46.05 -164.7,90.21 -250.75,132.1 -675.49,328.9 -1366.69,458.13 -1930.18,399.69l-47.79 -7.34c-252.82,-31.36 -445.6,-161.84 -452.92,-284.9 -19.11,-320.63 372.55,-644.6 744.99,-679.15 44.47,313.42 628.86,554.29 956.82,506.1 454.72,-66.8 824.46,-524.93 351.09,-785.74 -450.17,-248.02 -1095.58,-132.39 -1633.75,-505.96 -256.58,-178.06 -328.67,-516.61 -195.78,-811.02 51.49,-114.09 136.58,-215.17 236.9,-304.63 182.17,-127.85 381.59,-245.95 595.99,-350.34l0 0c537.84,-261.88 1085.6,-397.09 1570.97,-411.86 33.25,0.16 63.36,0.87 89.65,2.01 283.92,12.3 505.43,233.87 419.52,408.57 -62.34,100.71 -127.76,189.54 -276.5,269.71 -148.74,80.18 -330.29,100.15 -497.13,14.15 -25.15,-192.84 -156.2,-279.42 -291.36,-280.84 -368.68,-3.85 -813.39,154.83 -777.13,482.8z"/>
    <path class="fil4" d="M1990.82 3938.3c-531.52,-54.76 -949.59,-276.43 -1133.9,-654.96 -317.57,-652.22 159.54,-1563.43 1091.95,-2217.82 -100.32,89.46 -185.4,190.54 -236.89,304.62 -132.89,294.41 -60.8,632.96 195.78,811.02 538.17,373.57 1183.58,257.94 1633.75,505.96 473.37,260.81 103.63,718.94 -351.09,785.74 -327.96,48.19 -912.35,-192.68 -956.82,-506.1 -372.44,34.55 -764.1,358.52 -744.99,679.15 7.32,123.06 200.1,253.54 452.92,284.9l47.79 7.34 1.5 0.15z"/>
    <path class="fil5" d="M3805.08 328.28c8.57,-1.1 17.14,-2.17 25.68,-3.2 -8.54,1.03 -17.11,2.1 -25.68,3.2zm58.93 -7.05c8.41,-0.93 16.8,-1.82 25.18,-2.68 -8.38,0.86 -16.77,1.75 -25.18,2.68zm54.78 -5.59c9.85,-0.92 19.67,-1.8 29.48,-2.63 -9.8,0.83 -19.63,1.71 -29.48,2.63zm60.02 -5.09c8.24,-0.62 16.45,-1.18 24.65,-1.74 -8.21,0.55 -16.42,1.12 -24.65,1.74zm53.43 -3.53c9.83,-0.57 19.65,-1.08 29.43,-1.56 -9.79,0.47 -19.6,0.99 -29.43,1.56zm56.86 -2.77c8.57,-0.34 17.11,-0.65 25.64,-0.91 -8.53,0.27 -17.07,0.57 -25.64,0.91zm27.05 -0.95c698.34,-21.21 1267.37,207.09 1491.32,667.01 357.13,733.45 -290.68,1794.48 -1460.93,2449.41l23.72 -13.37c309.77,-202.96 481.97,-396.88 568.5,-555.96 205.21,-377.35 121.93,-937.81 -391.17,-1087.32 -243.02,-70.79 -556.23,-136.97 -808.49,-198.12 -164.78,-39.93 -733.78,-162.49 -756.2,-365.25 -36.26,-327.97 408.45,-486.65 777.13,-482.8 135.16,1.42 266.21,88 291.36,280.84 166.84,86 348.39,66.03 497.13,-14.15 148.74,-80.17 214.16,-169 276.5,-269.71 85.91,-174.7 -135.6,-396.27 -419.52,-408.57 -26.21,-1.14 -56.22,-1.85 -89.35,-2.01z"/>
    <path class="fil6" d="M1741.91 1220.86c-68.34,125.68 -113.12,263.29 -125.67,413.01 -24.45,235.53 59.72,417.2 196.6,551.32 -323.68,247.87 -572.82,572.37 -607.07,981.22 -28.67,276.33 75.09,486.97 240.47,639.89 -267.98,-111.6 -474.27,-286.66 -589.32,-522.97 -293.13,-602.03 90.84,-1424.74 884.99,-2062.47z"/>
    <path class="fil7" d="M4879.13 2899.95c96.98,-228.75 107.21,-462.92 38.72,-683.81 -54.39,-175.53 -164.43,-320.39 -316.96,-430.8 314.15,-313.26 404.73,-669.46 304.29,-993.42 -65.02,-209.81 -220.58,-372.14 -437.65,-477.15 534.37,53.75 954.94,275.59 1139.94,655.54 273.15,560.99 -41.58,1313.64 -728.34,1929.64z"/>
    <path class="fil4" d="M1950.16 1064.6c13.81,-9.69 27.72,-19.3 41.73,-28.88 -14.01,9.57 -27.92,19.2 -41.73,28.88z"/>
    <path class="fil4" d="M4089.1 304.25c8.57,-0.34 17.11,-0.65 25.64,-0.91 -8.53,0.27 -17.07,0.57 -25.64,0.91z"/>
   </g>
  </g>
 </g>
</svg>
